<svg xmlns="http://www.w3.org/2000/svg" viewBox="0 0 1200 700">
  <defs>
    <linearGradient id="bg" x1="0" y1="0" x2="1" y2="1">
      <stop stop-color="#0ea5e9"/>
      <stop offset="1" stop-color="#8b5cf6"/>
    </linearGradient>
    <clipPath id="r"><rect x="0" y="0" width="1200" height="700" rx="28"/></clipPath>
  </defs>
  <rect width="1200" height="700" rx="28" fill="url(#bg)" opacity="0.22"/>
  <g clip-path="url(#r)">
    <rect x="60" y="60" width="1080" height="120" rx="16" fill="#0b2236" opacity="0.8"/>
    <rect x="90" y="90" width="220" height="60" rx="12" fill="#122b45"/>
    <rect x="330" y="90" width="220" height="60" rx="12" fill="#122b45"/>
    <rect x="570" y="90" width="220" height="60" rx="12" fill="#122b45"/>

    <rect x="60" y="220" width="520" height="380" rx="18" fill="#0b2236" opacity="0.85"/>
    <rect x="600" y="220" width="520" height="380" rx="18" fill="#0b2236" opacity="0.85"/>

    <rect x="90" y="250" width="460" height="40" rx="8" fill="#143555"/>
    <rect x="90" y="300" width="420" height="22" rx="6" fill="#143555" opacity="0.8"/>
    <rect x="90" y="334" width="380" height="22" rx="6" fill="#143555" opacity="0.8"/>
    <rect x="90" y="368" width="300" height="22" rx="6" fill="#143555" opacity="0.8"/>

    <rect x="630" y="250" width="460" height="40" rx="8" fill="#143555"/>
    <rect x="630" y="300" width="420" height="22" rx="6" fill="#143555" opacity="0.8"/>
    <rect x="630" y="334" width="380" height="22" rx="6" fill="#143555" opacity="0.8"/>
    <rect x="630" y="368" width="300" height="22" rx="6" fill="#143555" opacity="0.8"/>
  </g>
</svg>